<?xml version="1.0" encoding="UTF-8"?>
<svg xmlns="http://www.w3.org/2000/svg" viewBox="0 0 32 52" width="32" height="52" shape-rendering="crispEdges">
  
    <ellipse cx="16" cy="46" rx="10" ry="3" fill="rgba(0,0,0,0.25)"/>
    <rect x="10" y="34" width="4" height="8" fill="#115e59"/>
    <rect x="18" y="34" width="4" height="8" fill="#115e59"/>
    <rect x="9" y="40" width="5" height="4" fill="#0a0a14"/>
    <rect x="18" y="40" width="5" height="4" fill="#0a0a14"/>
    <rect x="8" y="30" width="16" height="14" fill="#0f766e"/>
    <rect x="8" y="30" width="3" height="14" fill="#2dd4bf"/>
    <rect x="21" y="30" width="3" height="14" fill="#0a1428"/>
    <rect x="13" y="32" width="6" height="4" fill="#eaf2ff"/>
    <rect x="5" y="32" width="4" height="10" fill="#0f766e"/>
    <rect x="23" y="32" width="4" height="10" fill="#0f766e"/>
    <rect x="5" y="40" width="4" height="3" fill="#cc9868"/>
    <rect x="23" y="40" width="4" height="3" fill="#cc9868"/>
    <rect x="10" y="18" width="12" height="12" fill="#cc9868"/>
    <rect x="10" y="16" width="12" height="4" fill="#0a1420"/>
    <rect x="8" y="18" width="3" height="4" fill="#0a1420"/>
    <rect x="21" y="18" width="3" height="4" fill="#0a1420"/>
    <rect x="12" y="22" width="2" height="2" fill="#1a1008"/>
    <rect x="18" y="22" width="2" height="2" fill="#fff"/>
    <rect x="14" y="26" width="4" height="1" fill="#a0604a"/>
    <rect x="9" y="15" width="14" height="2" fill="#2dd4bf"/>
  
</svg>