<?xml version="1.0" encoding="UTF-8"?>
<svg xmlns="http://www.w3.org/2000/svg" viewBox="0 0 32 52" width="32" height="52" shape-rendering="crispEdges">
  
    <ellipse cx="16" cy="46" rx="10" ry="3" fill="rgba(0,0,0,0.25)"/>
    <rect x="10" y="34.5" width="4" height="8" fill="#14532d"/>
    <rect x="18" y="34.5" width="4" height="8" fill="#14532d"/>
    <rect x="9" y="40.5" width="5" height="4" fill="#0a0a14"/>
    <rect x="18" y="40.5" width="5" height="4" fill="#0a0a14"/>
    <rect x="8" y="30.5" width="16" height="14" fill="#166534"/>
    <rect x="8" y="30.5" width="3" height="14" fill="#22c55e"/>
    <rect x="21" y="30.5" width="3" height="14" fill="#0a1428"/>
    <rect x="13" y="32.5" width="6" height="4" fill="#eaf2ff"/>
    <rect x="6" y="32.5" width="4" height="10" fill="#166534"/>
    <rect x="22" y="32.5" width="4" height="10" fill="#166534"/>
    <rect x="6" y="40.5" width="4" height="3" fill="#c9926a"/>
    <rect x="22" y="40.5" width="4" height="3" fill="#c9926a"/>
    <rect x="10" y="18.5" width="12" height="12" fill="#c9926a"/>
    <rect x="10" y="16.5" width="12" height="4" fill="#0f0f0f"/>
    <rect x="8" y="18.5" width="3" height="4" fill="#0f0f0f"/>
    <rect x="21" y="18.5" width="3" height="4" fill="#0f0f0f"/>
    <rect x="12" y="22.5" width="2" height="2" fill="#1a1008"/>
    <rect x="18" y="22.5" width="2" height="2" fill="#fff"/>
    <rect x="14" y="26.5" width="4" height="1" fill="#a0604a"/>
    <rect x="9" y="15.5" width="14" height="2" fill="#22c55e"/>
  
</svg>