<?xml version="1.0" encoding="UTF-8"?>
<svg xmlns="http://www.w3.org/2000/svg" viewBox="0 0 32 52" width="32" height="52" shape-rendering="crispEdges">
  
    <ellipse cx="16" cy="46" rx="10" ry="3" fill="rgba(0,0,0,0.25)"/>
    <rect x="10" y="35" width="4" height="8" fill="#7f1d1d"/>
    <rect x="18" y="35" width="4" height="8" fill="#7f1d1d"/>
    <rect x="9" y="41" width="5" height="4" fill="#0a0a14"/>
    <rect x="18" y="41" width="5" height="4" fill="#0a0a14"/>
    <rect x="8" y="31" width="16" height="14" fill="#991b1b"/>
    <rect x="8" y="31" width="3" height="14" fill="#ef4444"/>
    <rect x="21" y="31" width="3" height="14" fill="#0a1428"/>
    <rect x="13" y="33" width="6" height="4" fill="#eaf2ff"/>
    <rect x="4" y="33" width="4" height="10" fill="#991b1b"/>
    <rect x="24" y="33" width="4" height="10" fill="#991b1b"/>
    <rect x="4" y="41" width="4" height="3" fill="#c88860"/>
    <rect x="24" y="41" width="4" height="3" fill="#c88860"/>
    <rect x="10" y="19" width="12" height="12" fill="#c88860"/>
    <rect x="10" y="17" width="12" height="4" fill="#201008"/>
    <rect x="8" y="19" width="3" height="4" fill="#201008"/>
    <rect x="21" y="19" width="3" height="4" fill="#201008"/>
    <rect x="12" y="23" width="2" height="2" fill="#1a1008"/>
    <rect x="18" y="23" width="2" height="2" fill="#fff"/>
    <rect x="14" y="27" width="4" height="1" fill="#a0604a"/>
    <rect x="9" y="16" width="14" height="2" fill="#ef4444"/>
  
</svg>